<?xml version="1.0" standalone="no"?><!DOCTYPE svg PUBLIC "-//W3C//DTD SVG 1.1//EN" "http://www.w3.org/Graphics/SVG/1.1/DTD/svg11.dtd"><svg t="1686821707388" class="icon" viewBox="0 0 1024 1024" version="1.1" xmlns="http://www.w3.org/2000/svg" p-id="8774" xmlns:xlink="http://www.w3.org/1999/xlink" width="200" height="200"><path d="M951.7 352.4c-0.4-2.2-1-4.4-1.8-6.5L874.4 158c-13.2-39.2-51.3-64.6-97.1-64.7H248.9c-45.1 0-81.1 24.1-94.2 62.8L73.8 347.3v0.1c-0.5 1.5-0.9 3.1-1.2 4.7-13.1 40.1-11.7 83.7 4 122.8 15.7 39.2 45 71.7 82.2 91.5 24.2 13 52.7 19.5 84.6 19.5 51.9 0 100.8-22.3 134.8-61.3 33.9 38.7 82.6 60.9 134.2 61 51.3-0.3 99.8-22.5 133.4-61.2 33.9 38.8 82.7 61 134.4 61h0.7c32.6-0.2 61.5-7 85.9-20.4 75.6-41.2 111.3-130.6 84.9-212.6zM683.9 456.3c-5.9-6.6-16.6-14.4-34.1-14.4-13.9 0-26.7 5.5-34.2 14.8-3.7 4.3-6.8 9.1-9.1 14.2-20.3 33.3-55.8 53.4-94.8 53.8-38.8-0.2-75.3-20.9-95.5-54-1.6-3.2-4.2-8.5-8.2-13-7.9-9.4-20.8-14.8-35.4-14.8-13.8 0-26.3 5-33.3 13.4-5.5 6-8.3 12.2-9.7 15.3-20.7 33.4-56.6 53.4-95.9 53.5-20.9 0-38.8-3.9-53.2-11.6-49.6-26.3-72.3-83.8-53.8-136.9 0.3-1 0.6-1.9 0.8-2.9L209.9 179v-0.1c1.7-5 6.1-18.1 29.6-18.1h546.3c13 0.8 27 3.7 32.4 19.4v0.1l77.1 191.9c0.3 1.4 0.7 2.8 1 3.8v0.1c18.1 52.4-4.1 109.7-52.7 136.3-14.5 8-32.8 12.1-54.2 12.2h-0.3c-38.8 0-75.5-20.6-95.8-53.7-2.4-5.4-5.5-10.3-9.4-14.6zM860 627.5c-18.6 0-32.6 15.1-32.6 35.1l0.1 186.1c0 8.3-6.8 15.1-15.1 15.1l-611.8 0.4c-8.2 0-15-6.7-15-14.9l-0.2-186.7c0-20-14.1-35.1-32.6-35.1-8.4 0-15.8 3-21.4 8.6-6.4 6.4-10 15.8-9.9 26.5l0.2 183c0 22.8 8.4 44.2 23.7 60.1 15.5 16.1 36.5 25 59.1 25l604.3-0.4c46.4-0.1 82.7-37.6 82.7-85.3l-0.1-182.4c-0.1-20.6-13-35.1-31.4-35.1z" fill="" p-id="8775"></path><path d="M349.5 831.7c-17.6 0-32-14.4-32-32V659.5c0-17.6 14.4-32 32-32s32 14.4 32 32v140.2c0 17.6-14.4 32-32 32z" fill="" p-id="8776"></path></svg>