<?xml version="1.0" standalone="no"?><!DOCTYPE svg PUBLIC "-//W3C//DTD SVG 1.1//EN" "http://www.w3.org/Graphics/SVG/1.1/DTD/svg11.dtd"><svg t="1692330189140" class="icon" viewBox="0 0 1024 1024" version="1.1" xmlns="http://www.w3.org/2000/svg" p-id="1886" xmlns:xlink="http://www.w3.org/1999/xlink" width="200" height="200"><path d="M757.333333 166.4C563.2 34.133333 296.533333 85.333333 164.266667 281.6c-55.466667 83.2-81.066667 183.466667-70.4 283.733333 19.2 187.733333 196.266667 362.666667 381.866666 381.866667 81.066667 8.533333 164.266667-8.533333 236.8-44.8 21.333333-10.666667 29.866667-36.266667 19.2-57.6-6.4-14.933333-21.333333-23.466667-38.4-23.466667-6.4 0-12.8 2.133333-19.2 4.266667-49.066667 25.6-102.4 38.4-155.733333 38.4-187.733333 0-341.333333-153.6-341.333333-341.333333s153.6-341.333333 341.333333-341.333334 341.333333 153.6 341.333333 341.333334c0 29.866667-4.266667 57.6-10.666666 85.333333l-2.133334-8.533333c-6.4-23.466667-29.866667-36.266667-51.2-29.866667-23.466667 6.4-36.266667 29.866667-29.866666 51.2l29.866666 115.2c0 12.8 6.4 25.6 19.2 32 4.266667 2.133333 10.666667 4.266667 14.933334 6.4h8.533333c4.266667 0 6.4 0 10.666667-2.133333 14.933333-4.266667 25.6-14.933333 29.866666-27.733334 123.733333-192 70.4-448-121.6-578.133333z" p-id="1887"></path><path d="M640 554.666667c23.466667 0 42.666667-19.2 42.666667-42.666667s-19.2-42.666667-42.666667-42.666667h-42.666667l68.266667-91.733333c14.933333-19.2 10.666667-44.8-8.533333-59.733333-19.2-14.933333-44.8-10.666667-59.733334 8.533333l-85.333333 117.333333-85.333333-117.333333-2.133334-2.133333c-14.933333-19.2-42.666667-21.333333-59.733333-6.4-19.2 14.933333-21.333333 42.666667-6.4 59.733333L426.666667 469.333333h-42.666667c-23.466667 0-42.666667 19.2-42.666667 42.666667s19.2 42.666667 42.666667 42.666667h85.333333v42.666666h-85.333333c-23.466667 0-42.666667 19.2-42.666667 42.666667s19.2 42.666667 42.666667 42.666667h85.333333v42.666666c0 23.466667 19.2 42.666667 42.666667 42.666667s42.666667-19.2 42.666667-42.666667v-42.666666h85.333333c23.466667 0 42.666667-19.2 42.666667-42.666667s-19.2-42.666667-42.666667-42.666667h-85.333333v-42.666666h85.333333z" p-id="1888"></path></svg>